<svg xmlns="http://www.w3.org/2000/svg" id="Layer_1" data-name="Layer 1" width="500" height="500" viewBox="0 0 500 500">
  <defs fill="#000000">
    <style>
      .cls-1 {
        fill: #f44336;
      }

      .cls-2 {
        fill: #fd9934;
      }

      .cls-3 {
        fill: #f44336;
      }
    </style>
  </defs>
  <g>
    <path class="cls-1" d="M362.2,250c21.3-.4,39.7-16.4,43.4-37.4a45.5,45.5,0,0,0-28-50c-1.9-.8-3.8-1.4-6-2.2,1.9-12.3-1.1-23.2-9.9-31.9S341.8,117,329.6,119C318.5,71.8,278,47.8,239.8,49.9s-77.9,32-81.7,82.1l-3.2.5c-36.7,3.7-61.1,40.3-50.4,75.6A58.9,58.9,0,0,0,161.1,250h20.3v20.3c0,7.9-2.6,10.4-10.3,10.4H128.8a28.3,28.3,0,0,0-5.8.4,23,23,0,0,0-19.2,22.5c-.1,8,0,15.9,0,23.7a45.5,45.5,0,0,1,15.4,0v-21c0-7.6,2.5-10.2,10-10.2H171c16.3,0,25.7-9.3,25.8-25.5V250.4h45.5v77a75,75,0,0,1,15.6,0V250.2h45.9v21.7c.1,14.6,9.8,24.3,24.5,24.3s28.6,0,42.8,0c7.8,0,10.3,2.6,10.3,10.5.1,5.4-.2,10.9.1,16.3.1,2.4-.4,3.7-1.9,4.5a34.6,34.6,0,0,1,17.2-.4c0-7.1.1-14.1,0-21.1-.1-15.7-9.6-25.1-25.2-25.2H328.3c-4.5,0-8.4-1.7-8.8-6.4-.6-8-.2-16.1-.2-24.5C334,250,348.1,250.2,362.2,250Zm-101-15.2H164.1c-23.4-.1-40.5-14.6-44.4-37.2s13.4-46.7,36.8-49.6q4-.5,8.1-.6c6.7-.3,9.4-2.8,9.3-9.5a70.9,70.9,0,0,1,141.4-9.4c.9,8.3,5.7,11.1,13.3,7.7s16.6-2.4,22.6,3.5,7.4,14.3,3.6,22.7-.4,12.1,7.7,12.7a29.9,29.9,0,0,1,28.4,30c-.2,16.5-13,29.2-29.7,29.7h-100Z" fill="#000000"/>
    <path class="cls-2" d="M249.8,219.3H220c-14.1-.1-23.8-9.9-23.9-24,0-12.3-.1-24.7,0-37,.1-9.3,4.2-16.4,12.4-20.7,2.4-1.3,3-2.7,3.1-5.1a38.4,38.4,0,0,1,76.7-.1c.1,2.7,1.1,4,3.5,5.4,7.6,4.1,11.8,10.8,11.9,19.5.3,13.1.3,26.3,0,39.4A22.7,22.7,0,0,1,281,219.2C270.6,219.4,260.2,219.3,249.8,219.3Zm.1-15.4h28.9c6.9-.1,9.6-2.7,9.6-9.6.1-11.6.1-23.1,0-34.7,0-6.9-2.7-9.6-9.6-9.6H221.1c-6.9,0-9.6,2.7-9.6,9.6v34.6c0,6.9,2.7,9.6,9.6,9.7Zm22.8-69.5c.3-12.8-10.4-23.1-23.3-22.9s-23,11.1-22.1,22.9Z" fill="#000000"/>
    <path class="cls-2" d="M242.3,177c0-7.9,2.4-11.5,7.6-11.6s7.8,3.7,7.8,11.5-2.5,11.5-7.7,11.5S242.3,184.8,242.3,177Z" fill="#000000"/>
    <path class="cls-3" d="M410.7,331.3l-5.3-1.7c-2.8-.9-5.7-1.6-8.6-2.4h0a34.6,34.6,0,0,0-17.2.4h0a12.6,12.6,0,0,1-2.5.7l-1.7.4h-.1a61.5,61.5,0,1,0,35.4,2.7ZM367.8,432.6c-3.7-1-5.4-3.8-4.9-8.3a25.9,25.9,0,0,1,25.4-22.9h.1A26,26,0,0,1,414,423.9c.6,4.8-1.2,7.7-5.2,8.7h-.3a80.3,80.3,0,0,1-20.1,2.6,81.7,81.7,0,0,1-20.2-2.6Zm6.6-56.4a14.3,14.3,0,0,1,14.1-13.3h.9a14.1,14.1,0,0,1-.9,28.1h-.7a14.1,14.1,0,0,1-9.8-4.7A13.7,13.7,0,0,1,374.4,376.2Zm51.7,42.4-2-2.5L410,397.4l-3-3.8.8-1.5c7.4-14.6,6-25.8-4.1-34.1a24.6,24.6,0,0,0-15.2-5.3,24.2,24.2,0,0,0-15.3,5.4c-10.1,8.1-11.5,19.6-4.1,34.1l.8,1.5-3.1,4L353,415.9l-1.8,2.3-2.1-1.9c-10.7-10.1-15.3-38.9,2.2-59.3a48.6,48.6,0,0,1,69-5.4,50.1,50.1,0,0,1,16.9,34.2c.9,11.8-2.3,22.6-9.1,30.4Z" fill="#000000"/>
    <path d="M375.4,328.6l4.2-1.1a12.6,12.6,0,0,1-2.5.7Z" fill="#000000"/>
    <path d="M405.4,329.6c-2.8-.9-5.7-1.6-8.6-2.4h0A52.9,52.9,0,0,1,405.4,329.6Z" fill="#000000"/>
    <path class="cls-3" d="M302.7,357.2c-10.1-17-25.4-26.5-44.8-29.8a75,75,0,0,0-15.6,0c-35.5,5.8-55.4,35.2-53.7,64.8a61.4,61.4,0,0,0,121.7,8A59.5,59.5,0,0,0,302.7,357.2Zm-73.4,75.4h-.1c-3.6-.9-5.2-3.6-4.8-7.8,1.1-12.9,12.6-23.3,25.6-23.3s24.5,10.5,25.6,23.3c.4,5.2-2.5,7.1-5,7.8l-.7.2a80.3,80.3,0,0,1-20.1,2.6,78.3,78.3,0,0,1-20.4-2.7Zm6.6-55.5A14.2,14.2,0,0,1,250,362.9h.1a14.5,14.5,0,0,1,9.9,4.3,13.6,13.6,0,0,1,4,10.1,14,14,0,0,1-13.9,13.8H250A14.1,14.1,0,0,1,235.9,377.1Zm49.7,43.7-1.4-4.3A35,35,0,0,0,269.4,397l-2-1.3,1.1-2.1c8.1-15.5,7.2-26.7-3-35.3a24.2,24.2,0,0,0-15.5-5.6,24.7,24.7,0,0,0-15,5.1c-10.4,8.1-11.8,19.4-4.3,34.5l.7,1.4-1,1.3-15.9,21-1.8,2.3-2.1-2.1c-10.8-10.5-15.1-39.8,2.9-60a48.5,48.5,0,0,1,68.7-4.2c19.2,16.9,22.2,47.5,6.4,65.4Z" fill="#000000"/>
    <path class="cls-3" d="M165.5,359c-10.1-18.1-25.9-28.2-46.3-31.6a45.5,45.5,0,0,0-15.4,0c-33.6,6.3-55.5,32.9-53.7,64.4a61.8,61.8,0,0,0,57,58.2c30.1,2.4,58.3-18.5,64.7-48.2A59.7,59.7,0,0,0,165.5,359ZM91,432.7c-2.6-.7-5.7-2.7-5.1-8.2a26,26,0,0,1,25.2-23.1h.3A25.9,25.9,0,0,1,137,424.3c.5,4.5-1.2,7.3-5.1,8.3l-1.2.3a80.2,80.2,0,0,1-19.5,2.5,75.3,75.3,0,0,1-20-2.7ZM97.4,377a14.2,14.2,0,0,1,14.1-14.1h.1a14.3,14.3,0,0,1,14,13.9,14.1,14.1,0,0,1-4.1,10,13.5,13.5,0,0,1-10,4.3A14.1,14.1,0,0,1,97.4,377Zm51.7,41.6-1.9-2.5-16.1-21.3-1.2-1.5,1.1-1.5c3.6-5.2,7.2-13.3,3.6-21.8a34.4,34.4,0,0,0-9.6-12.9,21.3,21.3,0,0,0-13.4-4.6,24.4,24.4,0,0,0-16.1,6.2C86,367,85,377.4,92.2,392.3l.7,1.4L74.2,418.3l-2.1-2c-11.1-11.1-15.3-40.1,3.3-60.5a48.5,48.5,0,0,1,68.7-3.5c18.6,16.7,22,47.2,7,63.9Z" fill="#000000"/>
  </g>
</svg>