<svg xmlns="http://www.w3.org/2000/svg" id="Layer_1" data-name="Layer 1" width="500" height="500" viewBox="0 0 500 500">
  <defs fill="#aa3c3c">
    <style>
      .cls-1 {
        fill: #ff0f10;
      }

      .cls-2 {
        fill: #13960c;
      }

      .cls-3 {
        fill: #fd9934;
      }
    </style>
  </defs>
  <g>
    <path class="cls-1" d="M449.3,154c-.2-5.2-.1-10.4-.1-15.6,0-9.5-1.5-13.6-7.8-20.9,7.7-5.6,8.9-13.7,8.6-22.4-.3-6.4-.1-12.8-.1-19.2,0-13.4-6.4-21.6-19.3-25.3l-1-.5H262.5l-2.1.9c-10.8,3.2-17.6,11.8-17.9,23.3-.3,8.5-.3,17,0,25.4.2,4,1.4,7.9,2.2,11.8,0,0,4.4,7-.4,13.1-.7,6.1-1.5,11.4-1.8,16.8s.1,11.2-.1,16.8c-.3,8.3,1.4,15.8,8.2,21.8-8.1,7-8.5,16.3-8.2,25.8.1,5.9-.1,11.7,0,17.6.3,15.1,10.3,25.1,25.3,25.3,9.7.1,19.5,0,29.7,0l12.7-.2h64.4l12.2.3h37.1c15.3-.1,25.3-10.2,25.4-25.5.1-7.6-.1-15.1.1-22.7s-2.1-14.6-8.1-20.5C449.4,173.1,449.6,163.6,449.3,154Zm-11.9,69.2c0,8.3-4.7,13-13.1,13-26,.1-52.1,0-78.1,0s-51.3.1-76.9,0c-10,0-14.4-4.3-14.4-14.2,0-7.4-.1-14.8,0-22.2.1-8.9,4.8-13.5,13.6-13.5,51.9-.1,103.9,0,155.8,0,8.3,0,13,4.7,13.1,13S437.4,215.2,437.4,223.2Zm0-61.5c-.1,7.8-4.9,12.6-12.7,12.7H269c-9.6,0-14.1-4.4-14.1-14.1,0-7.4-.1-14.8,0-22.2.1-9.1,4.7-13.7,13.8-13.7H424c9,0,13.4,4.4,13.4,13.5S437.5,153.7,437.4,161.7Zm.7-62.8c-.1,8.2-4.9,13-13.2,13H269.1c-9.8,0-14.2-4.4-14.2-14.4,0-7.1-.1-14.3,0-21.4.1-9,4.7-13.5,13.6-13.5H424.3c9.1,0,13.8,4.6,13.8,13.6S438.2,91.3,438.1,98.9Z" fill="#aa3c3c"/>
    <path class="cls-1" d="M386.9,253.8l-.3-3.1a6.6,6.6,0,0,1,.1-1.9l-12.2-.3c.8,8.1,1.7,16.3,2.6,24.9H311.3c-.4-8.4-.8-16.5-1.2-24.9l-12.7.2c.7,8.7,1.3,16.9,1.9,25.4H226.5v-151l17.8,1.5c4.8-6.1.4-13.1.4-13.1-6.4-.5-13.1-1.4-19.8-1.4-70,.2-122.2,30.8-155.9,92.1-10.9,19.8-16.7,41.4-18.4,64a12.2,12.2,0,0,1-.6,2.6v22.6c1.3,8.4,2.2,16.8,4,25C68.6,386,127.7,440,198.3,448.6c88.7,10.7,167.9-45.3,187.2-132.8A159.7,159.7,0,0,0,386.9,253.8ZM177.4,128.5a6.9,6.9,0,0,1-.9,1.8c-14.9,15.6-24.8,34.1-32,54.3-1,2.7-2.2,3.8-5.2,3.7H91.8C114,158.5,142,138.9,177.4,128.5ZM64.2,257.3a160,160,0,0,1,17.9-52.9c.8-1.3,2.8-2.9,4.2-2.9,16.6-.2,33.1-.1,49.6-.1l2.7.3A309.4,309.4,0,0,0,128.1,274H62.4C63,268.5,63.4,262.8,64.2,257.3ZM83.4,357.5a152.8,152.8,0,0,1-20.8-69.9c0-.2.1-.5.2-1.1h65.3a310.1,310.1,0,0,0,10.6,72.9H105.8c-6.2,0-12.5.1-18.7-.1A4.9,4.9,0,0,1,83.4,357.5Zm9.4,14.8a16,16,0,0,1,2.7-.4H140c1.7,0,3,0,3.9,2.1,12.7,30.6,12.8,30.6,34,57.7C142.3,421.4,114.3,401.9,92.8,372.3Zm47.9-83.7a16.2,16.2,0,0,1,.1-2.1h72.1v72.7l-3.5.2H154.7c-2,0-3.5.1-4.2-2.6C144.4,334.4,141.5,311.7,140.7,288.6Zm72.8,148.1a41.8,41.8,0,0,1-17.6-7c-12.7-8.4-21.6-20.2-28.6-33.4-4.1-7.7-7.6-15.9-11.5-24.3h57.7Zm0-162.5H140.4c.6-8.6.7-17.1,2-25.3,2.3-14.9,5.3-29.7,8-44.5.4-2.1,1.2-3.1,3.6-3.1h57.4l2.1.3Zm.1-86.3H156.1c10.1-31.2,33.7-62.3,57.5-64.1Zm13,98.6h72a293.6,293.6,0,0,1-10.5,72.8H226.6Zm0,150V372H283C274.4,401.1,251.1,433.3,226.6,436.5Zm36.1-5.4c16.5-16.8,26.6-37.3,34.1-59.1h50.5C325.7,401.9,297.7,421.4,262.7,431.1ZM373.9,311.8a145,145,0,0,1-16.4,44.4c-1.3,2.3-2.6,3.3-5.4,3.3-15.7-.2-31.3-.1-46.9-.1h-4a310.1,310.1,0,0,0,10.6-72.9h65.4C376.1,295.1,375.5,303.5,373.9,311.8Z" fill="#aa3c3c"/>
    <path class="cls-2" d="M385.1,155.6H361.7c-5.1,0-8-2.4-7.9-6.5s2.6-5.9,7.5-5.9h48c5,0,7.6,2.4,7.5,6.5s-2.6,5.9-7.5,5.9Z" fill="#aa3c3c"/>
    <path class="cls-3" d="M321.1,149.6a6.1,6.1,0,0,1-6.3,6,6.4,6.4,0,0,1-6.1-6.3,6.6,6.6,0,0,1,6.4-6.1A6.4,6.4,0,0,1,321.1,149.6Z" fill="#aa3c3c"/>
    <path class="cls-3" d="M285.3,155.5a5.9,5.9,0,0,1-5.8-6.1,6.1,6.1,0,0,1,6.2-6.2,6.6,6.6,0,0,1,6.1,6.3A6.4,6.4,0,0,1,285.3,155.5Z" fill="#aa3c3c"/>
    <path class="cls-2" d="M383.4,217.5H358.8c-5.4-.1-8.6-5.1-6.2-9.4,1.6-2.8,4.3-3.1,7.1-3.1h41.7a67.1,67.1,0,0,1,7.8.2c4.1.4,6.3,3.3,5.5,7.3s-3,5-6.4,5Z" fill="#aa3c3c"/>
    <path class="cls-3" d="M315,205.1a6.3,6.3,0,0,1,6.1,6.2,6,6,0,0,1-6.2,6.1,6.3,6.3,0,0,1-6.2-6.2A6.4,6.4,0,0,1,315,205.1Z" fill="#aa3c3c"/>
    <path class="cls-3" d="M291.8,211.3a6.3,6.3,0,0,1-6.2,6.1,6.1,6.1,0,0,1-6.2-6.1,6.1,6.1,0,0,1,6.1-6.2A6.4,6.4,0,0,1,291.8,211.3Z" fill="#aa3c3c"/>
    <path class="cls-2" d="M385.1,81.3h24.1c5.1.1,7.6,2.3,7.6,6.4s-2.6,6.1-7.4,6.1H361c-4.8,0-7.2-2.1-7.2-6.2s2.3-6.2,7.1-6.3Z" fill="#aa3c3c"/>
    <path class="cls-3" d="M285.4,81.3a6.2,6.2,0,0,1,6.2,6.2,6,6,0,0,1-6,6.3,6.2,6.2,0,0,1-6.2-6.6A5.9,5.9,0,0,1,285.4,81.3Z" fill="#aa3c3c"/>
    <path class="cls-3" d="M321.1,87.1a6.2,6.2,0,1,1-12.3-.3,6.2,6.2,0,0,1,6.6-5.7A5.8,5.8,0,0,1,321.1,87.1Z" fill="#aa3c3c"/>
  </g>
</svg>