<svg xmlns="http://www.w3.org/2000/svg" id="Layer_1" data-name="Layer 1" width="500" height="500" viewBox="0 0 500 500">
  <defs fill="#b944ff">
    <style>
      .cls-1 {
        fill: #201b15;
      }

      .cls-2 {
        fill: #ff0f10;
      }

      .cls-3 {
        fill: #1f3e9b;
      }
    </style>
  </defs>
  <g>
    <g>
      <path class="cls-1" d="M379.3,279.4a18.7,18.7,0,0,0-.2,37.4c10.7.1,18.7-7.7,18.9-18.4A18.4,18.4,0,0,0,379.3,279.4Zm-.1,24.9A6,6,0,0,1,373,298a6.2,6.2,0,0,1,6.4-6.1,5.9,5.9,0,0,1,6,6.4C385.4,302,383,304.4,379.2,304.3Z" fill="#b944ff"/>
      <path class="cls-1" d="M267.1,279.4a18.8,18.8,0,0,0-18.9,18.9c0,10.6,8,18.5,18.7,18.5a18.3,18.3,0,0,0,18.7-18.5A18.5,18.5,0,0,0,267.1,279.4Zm-.6,24.9c-3.8-.2-6-2.8-5.8-6.6a6,6,0,0,1,6.3-5.8,6.5,6.5,0,0,1,6.1,6.6C273,302.1,270.2,304.5,266.5,304.3Z" fill="#b944ff"/>
      <path class="cls-1" d="M323,279.4a18.7,18.7,0,1,0,18.9,18.9A18.7,18.7,0,0,0,323,279.4Zm-.3,24.9c-3.6-.1-5.8-2.5-5.8-6.1a6.3,6.3,0,0,1,6.4-6.3,6.1,6.1,0,0,1,6,6.5A5.9,5.9,0,0,1,322.7,304.3Z" fill="#b944ff"/>
      <path class="cls-2" d="M119,331.2c-21.1-1.1-37.4-17-38.8-38-.1-2.4.6-5.5,2.1-7.1s4.6-1.7,6.3-.9,3.1,3.2,3.7,5.2c1.5,4.5,1.8,9.6,3.9,13.8,4.2,8.4,11.6,13.1,21,14.3l2.9.3c4.7.5,7,2.7,6.8,6.6S123.9,331.5,119,331.2Z" fill="#b944ff"/>
    </g>
    <path class="cls-2" d="M270.4,139.3c-13.8-67.1-82.3-106.4-146.8-83-77,28-97,123.4-43.7,179.8l2.4,2.8h0a126.9,126.9,0,0,0,12.1,10.1l1.3.8,1.8,1.2h.1c24.7,17.4,52.1,24.1,82.3,19.1C241.1,260.2,282.8,199.8,270.4,139.3Zm-30.1-37.9c11.1,15.4,18.2,32.8,19.7,53.1H232.5c-7,0-14.1-.1-21.1.1-2.4,0-3.4-.8-3.6-3.3-1-13.3-2.1-26.6-3.2-40.1Zm-8.7-9.6L201.7,99c-5.1-11.6-9.8-22.6-14.5-33.4C203.7,69.7,218.1,78.6,231.6,91.8ZM196,167.3c-1.4,13.9-2.7,27.6-4.1,40.8H130.5c-1.3-13.1-2.8-26.7-4.3-40.8Zm-69.5-13.1c1.4-14,2.8-27.6,4.1-40.6h60.7a173.2,173.2,0,0,1,4.1,40.6Zm46.2-86c5.9,6.5,13.2,22,15,31.9a237.5,237.5,0,0,1-53.3,0c3.8-11.8,7.7-23.1,16-32.2S165.5,60.1,172.7,68.2Zm-37.9-2L120.9,99,91.1,91.8A95.2,95.2,0,0,1,134.8,66.2ZM77.1,110c5.3-8.5,5.3-8.3,14.8-5.4s17.8,4.7,26.8,7.1c-1.4,14.4-2.9,28.6-4.4,43.1H62.7A99.5,99.5,0,0,1,77.1,110Zm1.3,104.8a107.8,107.8,0,0,1-15.7-47.5l3.6-.2h44.3c1.9.1,3.8-.4,4.1,2.7,1,13.5,2.2,27.1,3.3,40.8L92.8,217l-3.9,1.3C82.2,220.7,82.2,220.7,78.4,214.8ZM91,230.3l29.8-7.2,14.4,33.2A102.6,102.6,0,0,1,91,230.3Zm80.7,23.8c-6.9,7.2-14.2,7.1-21.1-.1s-11.7-18.7-15.1-29.2a39.3,39.3,0,0,1-1.1-4h53.9C184.4,233.4,180.5,245,171.7,254.1Zm16.3,1.7c4.6-10.7,9.3-21.5,14.3-33.3l29.8,7.1C219.1,242.9,204.5,251.4,188,255.8Zm70.2-75.4A100.2,100.2,0,0,1,241.9,218c-1.1,1.5-1.8,2.6-4.3,1.9-10.5-3.1-21.2-5.9-31.8-8.7l-1.4-.6c1.5-14.4,2.9-28.8,4.4-43.3h51.3C259.4,171.8,259,176.1,258.2,180.4Z" fill="#b944ff"/>
    <path class="cls-1" d="M97.5,251.1a32.8,32.8,0,0,1-3.1-2l1.3.8Z" fill="#b944ff"/>
    <path class="cls-2" d="M403.9,225.2c-7.6-2.8-15.9-3.8-24.5-5.7,0-1-.1-1.9-.1-2.8-2.1-31.2-15.8-56-41.2-74.2A90.6,90.6,0,0,0,298,126.6c-3.4-.5-6,.3-7.4,3.6s.6,8,6.5,8.9c19.9,3.2,36.6,12.2,49.8,27.4C361.4,183.2,368,202.8,367,225c-.4,7.2,1.7,8.9,9,8.7a57.2,57.2,0,0,1,12.4.3c29.4,4.4,51.2,31.5,48.9,60.5-2.3,30.6-26.9,53.6-57.5,53.6H115.2a52.9,52.9,0,0,1-26.4-98.6c2.2-1.3,3.7-1.5,5.6-.4A126.9,126.9,0,0,1,82.3,239h0l-2.1,1.4c-24.8,16.4-35.7,45.6-27.5,73.5s33.8,46.8,63.8,46.8h68.6v42.8c0,.8-.2,1.6-.3,2.6H170.2a39.9,39.9,0,0,1-.3,13.8c2.7-1.4,5.8-1.3,9.3-1.1,1.2.1,2.5,0,3.7,0,9.7,0,14.6-4.9,14.7-14.5V360.9h37.9v44.4c8.1-1.7,13.2.2,13.2.2a5.7,5.7,0,0,1-.6-3.1c.1-12.5.1-25.1.1-37.7v-3.8h54.1c0,1.3.1,2.2.1,3.2,0,13.7-.1,27.4,0,41,.1,8.4,5.2,13.5,13.5,13.6,3.3,0,6.6.2,9.9,0a8.3,8.3,0,0,1,4,.5,35.2,35.2,0,0,1-.1-13.2H315.2V360.6h64.2a72.8,72.8,0,0,0,13.2-1.2c31.7-6,54.3-31.3,57.2-63.6C452.4,265.6,433.4,235.9,403.9,225.2Zm-24.5-5.6a.3.3,0,0,1,.1.2A.3.3,0,0,0,379.4,219.6Z" fill="#b944ff"/>
    <path class="cls-3" d="M170.2,406a23.1,23.1,0,1,0-.3,13.8A39.9,39.9,0,0,0,170.2,406Zm-22.1,18.7a12.2,12.2,0,0,1,0-24.4,12.2,12.2,0,1,1,0,24.4Z" fill="#b944ff"/>
    <path class="cls-3" d="M248.7,405.5s-5.1-1.9-13.2-.2a23.1,23.1,0,1,0,13.2.2Zm-6.9,34.2a12.2,12.2,0,0,1,0-24.4,12.2,12.2,0,0,1,0,24.4Z" fill="#b944ff"/>
    <path class="cls-3" d="M351.8,389.4A23.1,23.1,0,0,0,329.7,406a35.2,35.2,0,0,0,.1,13.2,23.1,23.1,0,1,0,22-29.8Zm0,35.3a12.2,12.2,0,0,1,0-24.4,12.2,12.2,0,0,1,0,24.4Z" fill="#b944ff"/>
  </g>
</svg>