<svg xmlns="http://www.w3.org/2000/svg" id="Layer_1" data-name="Layer 1" width="500" height="500" viewBox="0 0 500 500">
  <defs fill="#000000">
    <style>
      .cls-1 {
        fill: #f44336;
      }

      .cls-2 {
        fill: #fd9934;
      }

      .cls-3 {
        fill: #11830c;
      }

      .cls-4 {
        fill: none;
      }
    </style>
  </defs>
  <g>
    <path class="cls-1" d="M450,345.9c-.2-11.5-.2-23.1,0-34.7.1-7.9-.9-15.3-6.8-21.1,5.9-7.7,6.7-10.2,6.7-19.9,0-13.1.1-26.1,0-39.2-.1-15.2-9.1-24.2-24.4-24.4-6.6,0-13.2-.1-19.8.1h-1.5l-14.6-.5H179.2a38.6,38.6,0,0,0-9.6.9,21.5,21.5,0,0,0-16.2,20.6c-.2,10-.1,19.9-.1,29.9v4.1l-1.1,14c2.5,5.3,4.8,9.9,7.1,14.8-5.2,7-6,9.3-6,18.8s.1,21.8-.1,32.7c-.1,9.1-.5,18.1,6.9,25.1-5.3,5.5-7,11.8-6.9,18.8.2,13.2.1,26.4.1,39.6,0,15.8,8.9,24.8,24.6,24.8H425.2c15.8,0,24.7-9,24.7-24.8.1-12.3-.1-24.5.1-36.7.1-8-.7-15.6-7-21.7C449.2,361,450.1,353.7,450,345.9ZM165.7,230.5c0-7.5,3.9-11.3,11.5-11.3H425.4c8.5,0,12,3.5,12,11.9q.2,20.4,0,40.8c0,8-3.8,11.8-11.8,11.8H177.4c-7.8,0-11.7-3.8-11.7-11.6C165.6,258.3,165.6,244.4,165.7,230.5Zm271.7,77.9c.1,13.1,0,26.1,0,39.2,0,9.8-3.1,13.1-12.9,13.1H179.2c-10.5,0-13.5-3.1-13.5-13.8,0-12.8-.1-25.6,0-38.3,0-8.7,3.6-12.4,12.2-12.4H425.1C433.8,296.2,437.4,299.8,437.4,308.4Zm0,117.6c0,7.9-3.7,11.8-11.5,11.8H177.4c-7.8,0-11.7-3.9-11.7-11.6-.1-13.5-.1-27,0-40.4,0-9,3.5-12.5,12.4-12.5H424.6c9.5,0,12.8,3.3,12.8,12.8Q437.6,406,437.4,426Z" fill="#000000"/>
    <path class="cls-1" d="M404.2,206.6l-14.6-.5c-2.8-25.9-28.7-45.8-54.4-42.4-8.2,1.1-10.5-1.5-8.5-9.8a72,72,0,0,0,.6-32c-7-32.5-33.6-56.8-64.7-59.3-35.4-2.9-64.7,15.4-77.4,48.2-2.2,5.6-4.5,6.8-10.2,5.2-10.1-2.8-20.1-2.7-29.7,1.1-18.1,7-29.3,19.9-32.5,39.3-.9,5.7-2.3,7.2-6.9,7.8A49,49,0,0,0,63.1,211c-.8,24.2,15.7,46.6,39.7,50,16.3,2.3,33.2.8,49.8,1.1l.7-.5-1.1,14c-12.1,0-25,.2-37.9-.1a79.7,79.7,0,0,1-17.5-2.1A62.8,62.8,0,0,1,50,212.5c.2-27.9,19.4-51.8,47.4-58.9,2.3-.5,3.4-1.6,4-4,8-29.7,33.9-49.1,64.4-47.1,7.3.4,9.8-1.7,12.9-7.6,15.7-30.5,49.7-48.3,83.8-44.7,45.6,4.9,78.9,42.4,78,87.9,0,4.3-.6,8.6-1,12.9,4.4.6,8.9,1,13.4,1.9a61.5,61.5,0,0,1,48.2,49.9C401.5,205.3,402.3,206.4,404.2,206.6Z" fill="#000000"/>
    <path class="cls-1" d="M314,134.2c-.9,5.1-1.3,10.4-2.7,15.4a10.5,10.5,0,0,1-4.9,5.7,6.9,6.9,0,0,1-6.2-.9c-1.3-1.2-2-4.1-1.6-6,1.8-7.4,2.8-14.8,1.2-22.4-3.5-17.4-18.3-31.1-36.9-34.3-23.7-4.2-42.1,6.1-51,28.5-1.8,4.4-5.1,6.3-8.7,5s-4.7-4.6-3-9.5c11.6-32.1,45.5-46.5,77.8-32.6,18.6,8,31,21.4,34.8,41.7a20,20,0,0,1,.4,2.4c.1,2.3.2,4.6.4,6.9Z" fill="#000000"/>
    <path class="cls-1" d="M162.4,129.2a83.2,83.2,0,0,1,8.7,1.5c4.1,1,6.3,4.3,5.5,7.6s-4.2,6-8.7,5c-9.8-2.2-17.8.7-23.6,8.9-1.8,2.5-2.7,5.8-3.5,8.8s-4,6.7-7.3,6-5.1-3.8-4.5-8.2C131.1,141.7,145.2,129.4,162.4,129.2Z" fill="#000000"/>
    <path class="cls-1" d="M78.8,211.7A33.8,33.8,0,0,1,107,180c4.2-.7,7.8,1.4,8.5,4.9s-1.8,6.4-5.9,7.4c-11.9,3.1-17.2,9.2-18.4,21.2-.3,4.1-2.9,6.5-6.4,6.3S78.6,216.2,78.8,211.7Z" fill="#000000"/>
    <path class="cls-2" d="M229.6,268.6h-23c-4.6-.1-7.2-2.5-7.1-6.4s2.6-6,7-6h45.1c4.3,0,7.3,2.7,7.4,6.3s-2.6,6-7.3,6.1Z" fill="#000000"/>
    <path class="cls-2" d="M228.8,246H206.7c-4.7,0-7.2-2.3-7.2-6.2s2.6-6.1,7.3-6.2h44.7c4.5.1,7.6,2.9,7.5,6.6s-2.7,5.8-7.2,5.8Z" fill="#000000"/>
    <path class="cls-3" d="M320.5,245.3c3.6.1,6.3,2.7,6.1,6.1a6.3,6.3,0,0,1-12.5-.3C314.1,247.7,316.9,245.3,320.5,245.3Z" fill="#000000"/>
    <path class="cls-3" d="M404.2,251.3a6.2,6.2,0,1,1-12.4-.6c.2-3.2,2.8-5.4,6.3-5.4S404.4,248,404.2,251.3Z" fill="#000000"/>
    <path class="cls-3" d="M378.5,251a6.3,6.3,0,0,1-6,6.3,6.1,6.1,0,0,1-6.3-5.9c-.2-3.5,2.3-6,5.9-6.1S378.5,247.6,378.5,251Z" fill="#000000"/>
    <path class="cls-3" d="M346.3,245.3a5.7,5.7,0,0,1,5.9,5.7,6.2,6.2,0,0,1-6.4,6.3,6.3,6.3,0,0,1-6-6.3C339.9,247.6,342.5,245.3,346.3,245.3Z" fill="#000000"/>
    <path class="cls-2" d="M228.6,388.3c7.4,0,14.8-.1,22.2,0,5.1,0,7.5,2.1,7.5,6.3s-2.5,6.2-7.6,6.2H206.5c-4.9,0-8.1-3.3-7.4-7.4s3.4-5.1,7-5.1Z" fill="#000000"/>
    <path class="cls-2" d="M228.9,410.3c7.3,0,14.7-.1,22.1,0,4.9,0,7.3,2,7.3,6s-2.4,6.4-7.5,6.4H206.5c-4.7,0-7.6-2.5-7.6-6.4s2.6-6,7.4-6C213.8,410.2,221.3,410.3,228.9,410.3Z" fill="#000000"/>
    <path class="cls-3" d="M346,399.6a6.4,6.4,0,0,1,6.2,6.5c-.2,3.3-2.5,5.4-6.2,5.4s-6.2-2.3-6.2-5.8A6.3,6.3,0,0,1,346,399.6Z" fill="#000000"/>
    <path class="cls-3" d="M404.3,406c-.2,3.4-2.8,5.6-6.6,5.5s-6-2.4-6-5.7a6.4,6.4,0,0,1,6.6-6.2A6.7,6.7,0,0,1,404.3,406Z" fill="#000000"/>
    <path class="cls-3" d="M326.6,405.6c.1,3.3-2.3,5.7-5.8,5.9s-6.5-1.9-6.7-5.3a6.3,6.3,0,1,1,12.5-.6Z" fill="#000000"/>
    <path class="cls-3" d="M372,411.5c-3.5-.1-5.8-2.3-5.8-5.7a6.2,6.2,0,1,1,12.3.2C378.4,409.4,375.9,411.6,372,411.5Z" fill="#000000"/>
    <path class="cls-2" d="M228.7,323.2H206.6c-4.8-.1-7.7-2.5-7.7-6.4s2.7-6.2,7.8-6.2c14.6-.1,29.2-.1,43.9,0,5.1,0,7.6,2,7.7,6.1s-2.5,6.5-7.8,6.5Z" fill="#000000"/>
    <path class="cls-2" d="M228.7,333.1h22.1c5.1.1,7.6,2.3,7.5,6.4s-2.4,6.2-7.2,6.2c-15,.1-29.9.1-44.8,0-4.5,0-7.3-2.5-7.4-6.2s2.6-6.3,7.6-6.4Z" fill="#000000"/>
    <path class="cls-3" d="M372.4,321.9a6.4,6.4,0,0,1,6.1,6.3c0,3.3-3.2,6.6-6.4,6.4a6.5,6.5,0,0,1-5.9-6.5A6.3,6.3,0,0,1,372.4,321.9Z" fill="#000000"/>
    <path class="cls-3" d="M346.4,334.4a6.6,6.6,0,0,1-6.6-6.2,6.4,6.4,0,0,1,6-6.3,6.5,6.5,0,0,1,6.4,6A6.3,6.3,0,0,1,346.4,334.4Z" fill="#000000"/>
    <path class="cls-3" d="M326.6,328.1c-.1,3.5-3.2,6.5-6.5,6.3a6.7,6.7,0,0,1-6-6.4,6.6,6.6,0,0,1,6.3-6.1A6.4,6.4,0,0,1,326.6,328.1Z" fill="#000000"/>
    <path class="cls-3" d="M404.3,328.1c-.1,3.4-3.3,6.5-6.6,6.3a6.6,6.6,0,0,1-6-6.4c.2-3.3,3.2-6.2,6.3-6.1A6.6,6.6,0,0,1,404.3,328.1Z" fill="#000000"/>
    <line class="cls-4" x1="405.7" y1="206.7" x2="404.2" y2="206.6" fill="#000000"/>
  </g>
</svg>