<?xml version="1.0" encoding="utf-8"?>

<svg version="1.1" id="Layer_1" xmlns="http://www.w3.org/2000/svg" xmlns:xlink="http://www.w3.org/1999/xlink" x="0px" y="0px"
	 width="512px" height="316.4px" viewBox="0 0 512 316.4" style="enable-background:new 0 0 512 316.4;" xml:space="preserve">
<style type="text/css">
	.st0{fill:none;stroke:#FFFFFF;stroke-width:0.5;stroke-linecap:round;stroke-linejoin:round;stroke-miterlimit:10;}
</style>
<g>
	<polygon class="st0" points="123.6,75 121.3,79.3 121.5,80.1 121.9,80.2 122.3,80.8 122.2,81.2 123,81.8 126.1,79.5 127.2,80.9 
		129,81.4 129.7,80.7 129.5,79.9 129.3,79.8 126,75.1 125.6,75 125.5,74.6 126.1,73.9 126.1,73.5 124.3,73.5 123.6,75 123.6,75 
		123.6,75 	"/>
	<path class="st0" d="M181.9,216.5l-13.1-4.9l-0.7,0.3l-1.3-1.6l-4.2-1.4l-1.4,0.7l-0.1-0.3l0.1-0.4l-0.5-0.9l-1.4-0.5l-0.1,0.3l0,0
		l0.1,0.1l-0.1,0l0,0l-1.5,0.4l-0.7-0.4l1.5-0.8l0.2-2.4l-19.9-13.8l0.7-0.7l-3.1-0.4l-0.2,0.5l-5.5,0.2l-0.6-0.4l0-0.2l-2.9-2.1
		l-2.3,1.9l-0.5-0.2l0-0.5l0.8-0.8l-0.2-0.7l-0.5-0.1l-5.8,2.5l-2.7,4l0,0l0,0.1l0-0.1l0-0.1l-2.8-1.8l-4.5,0.7l-3.4-3.6l1.2-6.3
		l-0.2-0.3l-0.7-0.3l0,0l0,0l-0.1,0l0.1-0.1l-7.6-0.8l-0.1-0.3l3.7-8.7l-0.6-0.8l-5.3,1.3l-1.7,3.4l-5.5,0.8l-3.7-4.4l1.3-12
		l5.7-3.5l5.5,1l1-0.4l0.9-1.7l8.4,0.8l3.4,8.3l1.2-0.1l-0.2-10.7l9.6-7.9l0-5.1l0.1-0.1l0.2,0.1l0.4,1.1l6.3-6.9l-0.7-0.5l4.1-0.7
		l-0.6-1.7l9.2-5.6l0.2,0.1l-2,1.8l-0.1,0.7l0.7,0.9l0.4,0.1l9-4.4l0.1-0.5l-0.6-1.5l-0.5-0.2l-2.2,2.2l-0.6-0.1l-0.3,0.2l-2.8-2.2
		l0.2-1.8l-0.4-0.5L141,122l1.6-0.9l0.2-0.9l-0.4-0.6l-1.8-0.4l-4.9,1.8l0,0.1l-0.1,0l-0.6,0.7l0,0.1l-1.3,0.7l0,0.1l0-0.1l22.9-8.5
		l0.5-3.4l-1.4-0.8l0,0l-0.1-0.2l0.1-0.4h0l-0.1-0.3l-0.7-0.5l-0.8,0l0.8-0.3l0.1-0.7l-4.9-4.1l0-0.7l0.7-0.7l-2.2-9.6l-0.3-0.2
		l-4.9,5.1l-0.9-0.2l-1.5-2.3l1.1-4.1l-0.2-0.5l-2.2-1l-1.6-3.1l-5.1-1.4l-1.9,1l-1.1,6.8l-2.1,2.2l1.1,6.9l-5.2,3.1l-1.2,7.7
		l-1.3,0.6l-0.7-0.1l-1.9-3.5l1.4-5.3l-10.7-6.9l-2.6,0.2l-0.1,0.1l0-0.1l0.1,0l0.3-4.4l-0.3-0.2l-0.8-0.1l-0.5-0.4l7.5-10.7
		l0.8,0.1l1.2-1l-0.1-0.9l-0.1,0l-0.1-0.1l0.1,0l0,0l2.4-1.2l1.8,0.2l4.4-4.8l-0.3,0v0l0.9-0.6l0.3-1.1l0-0.2l0.2-0.3l4.3,0.8
		l3.3-2.4l0.1-3.9l-0.1,0l0.1,0l0,0l0.7,0.1l1.2-1.7l-0.1-1l-3.1-2.7l0,0l0,0l0.1,0.1l-4.6,5.7l0,0l-0.1,0.1l0-0.1l0,0l-0.4-0.5
		l-0.5,0.7l-0.1,1.5l-0.7,0.2l-0.4-0.4l-0.2-1.1l1-2.6l-0.6-2.4l-0.5,0l-1.7,2.2l-0.2-0.2l0.3-1.9l0.5-0.5l0.1-0.8l-1.8-0.9
		l-0.1-0.3l1.9-1.9l-0.2-7l2.4-2.5l1.9,0.3l3.7-3.6l-0.3-1l-4.6-1.3l-5.9,9.7l0.1,0l0,0.1l0.1,0l-0.1-0.1l0,0l-0.8,0.3l-2.5,4.8
		l0.7,1.9l1.7,1l-1.6,1.4l0.2,0.6l0.3,0.1l0,0l0.1,0l-0.1,0.1l0,0L118,63l-3.5,2.6l-0.4,1.6l-0.6-0.8l0-0.9l1-1.4l-1.1-1.5l0.1,0.1
		l-0.1-0.1l1.5,0.2l1.2-0.6l0.2-0.3l-0.1-1.3l1-1.4l-2.8-1.5l-3.1,2.4l0,0.5l1.7,1.7l-0.1,0l0.1,0.1l-1.7,0.6l-1,1.5l-4-0.3
		l-2.9-2.4l-0.4-2.4l-0.9-0.8l-2.7,0.3l-0.8,0.7l0.3,0.8l3.1-0.7l0.2,0.2l-0.1,0.2l-3.9,2.1l-0.7,2.4l-0.5,0.2l-1.1-3.7l-6.6-1.3
		l0-0.5l0.9-0.6l0.6,0l1-1.2l-7.9-6.9l-2.7,0.9L81.1,51l0.8-2.1l-0.1-0.2l-0.2-0.1l-2.5,1.7l-0.2-0.3l0.1-4.7l-0.3-0.1l-2,2.3
		l-0.9,0.1L75.2,49h-0.2l0.1-0.9l0.5-0.6l0-0.1l0.2-0.6l-0.2-0.5l-6.9,1.3l-0.1,0.1l0-0.1l0,0l0.1-0.1l0-0.7l-2.6,0.6l-1.4,1.3
		L51.3,36.8l-0.9,0.2l-0.5-0.2l-0.6-1.6l0.3-0.9L49.2,34l-1.5-0.4l-0.6-1.3l0,0l-1,0.3l-0.1,0.3l-0.6,0.2l-0.2-0.3l0.8-0.2l0-0.1
		l0.9-0.3l0,0l-0.8-1.3l-19.9,5.8L25.8,45l1,0.6l0.1,0.3l-0.6,0.4l-0.1,1.5l0.3,0.2l0.5,0l0-0.1l0.1,0l0-0.3l0,0l-0.1-0.1l0.1,0.1
		l0,0l1.6,0.2l0.1,0.5l-0.3,0.2L27,48l0,0l-0.1,0l-0.3,0.5L24.4,49l-1.2-0.7l-0.2-0.6l0.4-0.6l-0.6-1l-6.8,2l-0.2,0.8l0.9,1.2
		l-0.6,0.5l-0.5,2.5l5,1.6l2.5-0.8l0.1,0.1l-3.2,4.5l-1.4-0.9l-1.8,1.6l-0.3-0.1l-0.2-0.3l-1.1-0.4L9.6,65l0,5.1l0.5,0.5l2.2-0.1
		l0.1-0.7l0.1,0.2l-0.2,0.6l0,0l-1.1,4.6l1.7-0.4l1.3,1.6l0.4,0.1l0.1-0.2L17,76l0,0.3L0,87.3l0,0.3l0.3,0.2l5.8-2.3l0,0l0.1,0
		l-0.1,0.1l0.5,0.8l16-8.8l0.3-1L22.6,76l0.1-0.7l7.5-4.8l0.8,0.6l0,0.6l-2.4,0.3l-2.1,2.7l0,1.1l-1,0.5l-0.1,0.5l0.4,0.3l7.4-2.5
		l-0.5-1.4l0.3-1l2.7,0.5l-0.2-0.4l-0.3-0.2l0,0.8l5.8,4.7l0,0l0.1,0l0,0.1l0,0l0.3,0.4l1.7,0.6l2,5l0.9,0.3l0.4-0.5l-0.1-0.7
		l0.2,0.1l0.8,1.9l-0.3,0.1l-0.3-0.2l-1,0.4l0,2.3l0,0l0,0.1l0-0.1l0,2.9l0.1,0.1l0.3-0.1l0.6-0.9l0,0.1h0.1l2.2-3.3l0.3-0.1
		l0.1-0.1l-0.4,2.4h0V89l0.4,0.7l0.7,0.1v-0.1l-0.7-0.8l-2.6,0.1l-0.4,1.8l0.4,0.5l0.3,0l0.2-0.4l0,0.1l-0.2,0.3l-0.1,0l0.4,4.1
		l0.3,0.2l0.3-0.6l0.6-2.1h0l0,0.3l-0.1,0.1l0.1,0.1l0,0.1l0.1,0.1l0,0.1l0.4,0l0,0l0.1-0.5l0-0.3h0l0.4,1.1l0,0.1l0.1,1h-0.1
		l-0.1-0.7l-0.3,0.8l0.4,0.6l0.6,0.1l0.2,0.4l-1.5,3.2l0.8,0.6l1.3-0.3l0.2,0.1l-1.1,2l0.2,0.2l0.1,0l0.1-0.1l-0.1,0.2l1.1,1.7
		l-0.3,0.6l0,0l0,0.1l0,0l-0.2,1.6l3.2,2.9l0.4,2l0.1,0l-0.1,0.1l0,0l0,0l0.1,0.4l1.1,0.5l0.4,2.3l-0.7,0.5l-1.5-0.7l0.1,0l0,0
		l0.5,0.1l0.6-0.6l-1.3-3.7l-3.9-2.8l-0.4,0.3l4.1,6.3l-0.1,0l0,0l-4.9,22.6l1.5,3l-0.2,0.5l9.5,19.7l-0.8,0.3l-0.2,0.5l3.6,3.7
		l0.2,2l2.7,3l0.7,0l0.3-0.8l-6.1-15.3l0.3-0.2l6.5,10.4l-0.2,0.3l5.5,8.7l-0.3,3.1l38,20.6l1.2-0.1l0.2-1.2l1.2-1.3l0.5,0l2.7,8.8
		l-5.9,9.7l1,1l0.4-0.4l0.1,0.3l-2.1,3.3l18.3,22.9l-0.4,41.9l0.5,0.6l-1,0.6l0.2,2.4l0.6,0.2l0.5-2.1l-0.4-1l0.9-0.2l0.3,0.2
		l-0.2,8.3l-0.3,0.1l-0.1-0.1l-0.2-0.7l-1.9,2.5l0.1,0.3l0.3,0.1l0.5-0.3l1.1,0.2l0.3,0.6l-0.1,1.5l0.1,0l0,0.1l0.1,0l-0.1-0.1l0,0
		l-1,0.4l-0.3,0.6l0.5,1.2l-0.3,0.9v0l0.4,0l0.1,0.1l0,0l0,1.4l0.5,0.6v0l0.4,0l0.2,0.7l0.1,0l0,0.1l0.1-0.1l0,1.9l0.4,0.5l0.5-0.5
		l0.2-1.4l-0.1-0.1l0.1,0.1l0,0.1l0.6,2l-0.6,0.4l-0.4,0l-0.3,0.2l3.2,3.1l0.1,0l0,0.1l-2-0.5l-0.1,0.1l0.1,0.3l3.2,2.3l0.7,0
		l0.3-0.5l0.1,0.5l2.7,2.3l0.7-0.8l0.3,0.1l0.2,1l2,0.2l0.3-0.6l-0.1,0l0-0.1l-0.1-0.1l0.1,0.1l0,0l1.8-1l0.7,0.1l1.2-0.9l0-0.2
		l-6.5-4.7l-0.7,0l0,0.1l-0.1,0l-1,2.2l-0.1-0.1l0-0.8l2-1.9l0.2,0l0.3-0.2l-1.3-3l3.4-7.1l-0.1-0.6l-2.7-2.1l-0.2-1.9l2.2-1.5
		l1.3-4.4l-0.1-0.1l-0.4-0.1l0-0.3l0.2,0l0.3,0.4l0.1,0l0,0.1l0.4,0.1l0.7-0.7l-0.3-0.9l-0.5-0.2l-0.3,0.2l-1.3-0.6l-0.4-1.5
		l0.5-0.4l2.5,0.7l1.1-1.2l-0.1-3l0.5-0.6l5.2-0.8l2-3.3l-0.4-0.8l-0.5-0.3l-0.5-2.2l-1.4-1l0-0.1l-0.1-0.1l0.1,0.1l0,0l0.1,0.1
		l4.4,0.7l2.3-1.2l2.1-4.6l0,0l0-0.1l0,0l0.3-1l0.5-0.1l0.5-1.4l0.3-0.2l0.3,0.8l3.7-10l10.5-5.5L181.9,216.5L181.9,216.5
		L181.9,216.5L181.9,216.5z M132.8,306.4L132.8,306.4L132.8,306.4L132.8,306.4L132.8,306.4L132.8,306.4L132.8,306.4L132.8,306.4z"/>
	<polygon class="st0" points="208.9,69.5 208.9,69.1 204.5,68.3 204.4,68.2 204.4,67.9 205.3,67.6 205.9,66.7 205.7,65.5 
		206.1,65.2 206.4,65.4 207.3,67.5 209.4,68.1 210.2,67.4 209.7,63.6 207.2,60.8 206.9,59.5 207.1,59.2 207.4,59.2 209.6,62.1 
		210,61.8 210.4,59.4 209.2,58.5 209,58.1 207.8,57.5 207.8,57.4 207.9,57.3 208.3,57.4 208.9,58 209,58 209,58.1 210.7,58.3 
		212.6,57.5 212.8,56.7 212.5,56.1 211.1,55.5 211,55.3 213.7,55.1 214.2,53.6 213.2,51.9 214,51.8 214.2,47.7 212.8,47.2 
		212.5,46.6 212.5,46.1 213.2,46.5 213.2,46.4 212.8,46 212.7,46.1 213.7,45.1 214.4,45.1 215.6,48.3 215.8,48.3 216.7,44.1 
		216.1,43.3 214.9,42.9 214.9,42.7 215.6,41.7 214.5,40.4 214.5,40.3 215.7,39.7 220.6,29.8 220.4,29.2 219.1,28.9 219,28.8 
		219.2,28.5 222.1,28.2 222.2,27.3 224.4,26 224.6,24 221.4,22.4 219.5,22.8 219.1,23.6 218.5,23.9 217.8,23.6 212.9,26.3 
		212.9,26.4 212,27.2 216.1,22.7 214.9,21 214.4,21.2 214.1,22.1 213.2,22.8 210.9,22.7 210.8,22.6 210.9,22.4 212.5,21.3 
		212.3,20.7 204.6,21.5 204.4,21.2 204.5,21.1 217.7,18.5 217.7,17.3 213.3,15.8 213.4,15.7 213.9,15.4 214.2,14.1 213.5,13.8 
		203.8,14.3 203.6,14.2 203.7,14.1 213,13 213.1,12.7 203.3,10 202,11.3 201.9,11.3 202,11.3 202,11.3 201.9,11.7 202,11.7 
		202.1,11.8 201.9,11.7 201.9,11.7 200.8,11.2 200.5,11.3 200.5,12.3 197.5,11.6 196.1,12.3 196,13.7 195.1,14.8 193.6,14.5 
		193.1,14.8 194.2,20.1 193.8,20.4 192.5,19.3 192.6,18.4 190.3,15 189.5,15.2 189,18.8 187.6,19.1 187.3,18.8 187.2,15.5 
		187.1,15.4 186.7,15.5 185.8,18.2 185.8,18.3 184.9,19.1 184.9,19.3 184.9,19 185.8,18.2 186.2,15 185.6,14.6 180.2,15.5 
		179.6,16.1 179.6,16.7 179.5,16.8 178.9,16.2 178,16.3 176.1,19.9 174,19.6 168.9,23.4 169.3,24.5 170.7,24.9 170.7,24.9 
		170.8,24.8 170.7,24.9 170.7,24.9 170.7,25.7 168.6,28.4 159.1,30.8 160.2,33.7 160.5,33.5 160.2,33.8 160.7,34.8 164.1,35.2 
		164.2,35.6 164,35.8 159.2,36.2 158.8,37.6 160,38.8 160,39.1 159.4,39.5 159.2,40 160.7,42 162.4,41.5 163.3,42.1 165.9,41.8 
		170.3,44.8 170.3,49.5 170.9,49.7 171,55.4 171.2,55.6 171,56.2 170.3,56.5 170.4,57.3 169.9,58.4 170.3,58.5 170.4,58.4 
		170.4,58.5 170.3,58.5 169.9,58.8 169.9,58.8 169.9,58.8 169.9,58.8 169.3,60.1 169.4,61 171.3,61.1 171.6,60.7 171.8,60.6 
		171.6,60.7 171.6,60.8 172.1,60.8 172.3,60.7 172.8,60.9 172,62 172.1,62.5 172.6,62.7 172.8,63.4 172.6,63.8 172.6,63.8 
		173.4,64.6 173.3,64.8 173.2,64.8 172.6,63.9 172.6,63.9 172.6,63.8 170.2,63.3 169.5,64 169.6,64.7 168.7,65.5 168.5,66.6 
		169.4,68.4 171.6,68.2 171.9,67.2 171.1,65.9 171,65.8 171,65.7 171.1,65.8 171.1,65.9 173.7,66.8 173.9,67.2 173.4,67.7 
		173.4,67.7 173.4,67.7 173.4,67.7 173.1,68.9 170,70.8 170.2,71.9 170.3,71.9 170.3,72 170.3,72 170.2,71.9 169.7,71.8 167.7,75.2 
		168.3,76.2 168.6,76 168.7,76 168.4,76.2 168.3,76.2 167.5,77 168.2,82.8 168.6,83.2 169.8,82.8 169.9,82.7 170.1,82.6 168.5,84.8 
		169.2,86.7 169.2,86.6 169.2,86.7 169.2,86.7 169.1,86.7 172.1,93.2 173.8,92.8 175.9,95.2 177.2,95.5 178,95 180.4,89 180.3,89 
		180.3,88.9 180.1,88.8 180,88.7 180.2,88.7 180.3,88.9 180.4,88.9 180.4,89 183.6,83.3 183.5,83 208.9,69.5 	"/>
	<polygon class="st0" points="478.5,252.1 477.6,252 467.6,232.3 465.9,231.6 464.7,226.6 464.3,226.2 463.9,226.3 461,237.3 
		460.1,238 453.2,233.4 453,232.6 455.2,228.6 455.1,228.2 447.6,226.6 447.4,226.7 447.4,226.9 448,227.4 447.9,228 445.8,228.4 
		442.9,231.4 442.8,232.5 442.4,232.9 440.6,232.6 439.7,231.5 438.7,231.2 434.5,234.7 434.5,235.1 434.1,235.4 433.5,235.4 
		433.1,235.9 433.2,236.7 433.2,236.8 432.9,236.8 432.3,236 431.8,235.9 429.3,240.2 416.7,245 415.6,252.6 415.6,252.6 
		415.6,252.9 415.6,252.9 416,253.7 416.8,253.7 416.8,253.9 416,253.9 415.3,268.9 417.5,270.5 441.3,264.4 445,266.1 446.6,271.2 
		447,271.6 450.7,268.1 450.9,268.1 451,268.2 448.7,272.3 448.9,272.6 449.4,272.6 450.9,271.3 451.1,271.6 450.8,273.2 451,273.6 
		451.9,273.6 451.9,273.6 452,273.5 451.9,273.6 451.9,273.6 452.5,278.6 457.3,281.7 459.4,280.1 459.7,280.1 459.8,280.3 
		459.7,280.8 460.9,282.5 461.4,282.6 466.8,280.1 478.8,252.3 478.7,252 478.5,252.1 478.5,252.1 478.5,252.1 	"/>
	<path class="st0" d="M149.2,19.7l-0.9,5.1l0,0l0.8,0.6l-0.5-0.5v0l-3.2,0.5l-1.9,2.7l0.3,0.6l0.3,0l0.8,0.8l-0.4,1.6l-0.2,0
		l-0.2-0.1l-0.8-1.8l-1.3,0l-0.4,0.8l0.3,2.2l0,0l0,0l0,0l-5.3,1l0.1,1.2l4.7,2.6l0.8-0.3l0.2-0.3l0,0l0-0.1l0.1,0l0,0l3.4,0.7
		l0.5,0.7l0,0.2l0.5,0.4l3.8-1.5l0.1-0.2l-0.8-1.6l0.2-0.7l2.6-2.1l0.2-0.5l2.5-0.2l0.3-0.7l-0.1-0.3l-0.4-0.1l0.4,0l0,0.1l2.6-2
		l-0.3-1.8l-0.2-0.1l0.2,0l0,0.1l0.9,0.3l0.7-0.5l-0.3-0.8l-0.9-0.4l3.2-0.9l0.1-0.4l0.6,0.4l11.8-6.4l0.2-0.5L173,17l-0.1,0.1
		L173,17l0,0l6.4-2.2l0.7-1.9l-1-1.4l0.1-1.3L179,9.8l-2.8-0.1l-0.1,0.1l-0.1,0l-0.2,0.2l-0.1,0l1.1-0.8l0-0.6L170.2,6l-0.1-0.3
		l-2.8-0.5l-0.5,0.5L166.7,7l-0.1,0.1L166.3,7l-0.1-0.8l-2.3-1L163.4,6l0.1,0.7l-0.1,0.1l-0.2,0l-0.5-1l-1.4,0.4l-0.2-0.1l-1.4,2.2
		l-0.8-0.1l-0.7-1.5l-0.7-0.3l-1.6,1.5l0.5,1.4l0.1,0l0,0.1l-0.1-0.1l-1.9-0.7l-0.3-0.5L153.4,8l-0.5,0.5l-1.2-0.3l-2.4,1.1l0.2,1
		l0.3,0.1l0,0l0.1,0l0.3-0.3l0.2,0l0,0.3l-0.4,0.1l-0.1,0.1l0,0l0.2,1.3l-0.4,0.4l0.3,1.1l0.3,0.2l-0.5,0.1l-0.4,0.7l0.7,1.3L151,16
		l0,0l0.1-0.1L151,16l0,0l0.3,0.6l1.8,0.9l1.4-0.4l0-0.1l0,0l0,0l0.2,0.6l2.3,0.5l2.8-1.5l0-0.1l0,0l-0.1,0l-0.2,0.4l0.2,0.6
		l1.2,0.4l0,0.1l-0.1-0.1l-6.7,0.4l-0.6,0.4l-0.1,1.5l-0.2,0.2l-2.3-3l-0.9,0.1l-1.1,1.2L149.2,19.7L149.2,19.7L149.2,19.7
		L149.2,19.7z M149.5,25.5L149.5,25.5l0.3,0.2l0.1,0.1l-0.1,0.1l-0.3-0.1V25.5l-0.2,0L149.5,25.5L149.5,25.5z"/>
	<polygon class="st0" points="133,61 137.1,62.7 137.4,62.4 136.4,61.5 136.3,61.5 136.2,61.5 137.5,62.3 137.4,62.4 138.3,62.2 
		139.1,61.1 139,60.5 139,60.4 139,59.6 139.1,59.6 139,59.7 139,60.3 139,60.4 139,60.5 140.2,61 140.3,61.3 140,62.4 141.3,64.9 
		141.2,65.3 140.7,65.5 140.4,66 140.6,66.3 142.1,66.3 142.2,66.4 142.1,66.7 141.6,67 141.6,67.5 141.9,67.6 142.3,67.6 
		143.3,68.1 143.9,71.6 140.2,76.7 135.2,76.5 133.7,78.2 133.8,79.3 139.9,80.4 142.5,85.1 142.5,85.1 142.5,85.1 142.5,85.1 
		147.4,88.1 147.7,87.9 147.8,86.8 145.6,83.2 145.6,83.2 145.5,83.1 145.4,83 146.1,83 146.4,83.1 146.4,83.2 150.5,87.1 
		151.5,83.6 150.3,80.1 149.2,79.2 148.4,76.6 148.3,76.6 148.4,76.5 148.6,76.6 148.6,76.6 148.8,76.7 149.7,75.5 150.2,75.5 
		153.2,80 157.5,75.7 157.5,75.1 156.1,73.9 156.2,73.9 156.2,73.8 156.1,73.9 156,73.5 156.1,73.5 156,73.5 156,73.5 155.7,73.2 
		155,73.2 151,68.2 151.6,66.7 151.9,66.6 152.8,66.8 153.3,66.6 152.6,62.3 149.9,59.6 149.8,59.7 149.8,59.5 149.9,59.6 
		149.8,58.3 149.3,57.5 146.5,56.8 147,55.9 146.9,55.5 146.5,55.1 146.6,54.4 144.4,52.3 144.4,52.3 144.4,52.3 144.5,52.3 
		140.2,52.9 140.2,53 140,53.2 141.3,48.4 140.4,47.4 134.8,49.4 134.2,52.1 133.4,52.6 133,53.4 133.4,54.9 133.3,55 133,55.1 
		132.4,52.8 137,46.9 137,46.5 136.4,46.1 132.7,46.4 126.8,53.8 127.3,54.9 129.1,55.9 129.1,56.2 128.8,56.3 127.8,55.8 
		126.7,56.4 127.3,58.5 132.4,61.1 133,61 	"/>
	<polygon class="st0" points="99.6,39.5 92,44.2 92.9,45.7 94.6,45.9 94.7,46 94.5,46.3 91.5,46.8 91.3,47.3 91.3,48.1 92.3,49.2 
		96.1,49.8 98,51.7 98,52 91.3,50.7 90.5,51.4 90.3,52.9 91.7,54.8 93,55.2 93.2,55.6 92.7,57 92.9,58.2 93.2,58.4 102.5,57.2 
		103.9,59.1 107.7,59.6 108.4,59 108.2,57.3 107.7,57.6 107.5,57.5 107.6,57.3 108.1,57.3 108.2,56.6 109,56.6 110,57.5 111.1,56.6 
		108.7,51.5 113.9,41.8 113.1,40.6 112,40.3 110.8,40.8 110.8,42.9 110.9,43 110.8,43 110.8,42.9 109.4,41.8 108.3,42.1 106.1,48 
		105.6,48.2 105.3,47.8 106,42.9 105.7,42.5 105.1,42.6 104.8,43.9 104.4,44.2 102.5,43.9 103.5,43.4 103.7,42.7 102.7,41.5 
		101.5,41.4 100.5,42.1 101.4,40.4 101.1,39.3 100.8,39.2 100.8,39.1 100.8,39.1 100.8,39.1 99.6,39.5 99.6,39.5 99.6,39.5 	"/>
	<polygon class="st0" points="475.4,223.3 472.4,219.9 472.5,219.2 473,218.9 472.9,217.9 458.3,210.7 453,213.2 451.4,209.4 
		448.3,208.7 446.3,209.6 446.1,209.9 446.3,210.2 450.6,212 448.4,212.5 448.3,212.8 449.2,214.5 450,214.7 450.8,214.1 457.8,218 
		458.5,219.5 457.2,221.1 457.5,221.8 465.5,223.2 465.8,222 467.1,220.9 468.4,220.8 476.8,225.7 477.2,225.5 477.3,225.2 
		476.5,223.7 475.4,223.3 475.4,223.3 475.4,223.3 	"/>
	<polygon class="st0" points="411.2,207.4 413.1,212.2 416.5,213.8 418,213.5 419.6,214.1 419.9,214.5 422.2,214.6 422.8,214.2 
		425,207.3 426.5,206.7 426.7,206.2 425.6,205.1 425.2,201.6 427.3,199.4 427.2,199.2 424.1,196.6 423.6,196.5 414,205.4 412.8,205 
		411.8,205.3 411.2,207.4 411.2,207.4 411.2,207.4 	"/>
	<polygon class="st0" points="139.6,26.8 142.3,27.2 142.9,26.7 142.8,26.8 142.9,26.8 143.3,26.7 147.5,24.1 147.5,24.1 147,24 
		146.6,24.1 147,24.8 147.2,24.8 148.7,22.6 148.2,19.9 149,19 149.2,16.8 147.2,14.9 146.7,10.4 145.5,10.1 145,10.7 146,11.4 
		146.1,11.7 145.9,11.8 144.1,12.1 143.5,13 143.8,13.7 143.6,14.1 141.5,14.3 141.1,14.9 142,16.7 142.5,16.8 142,16.8 142,16.7 
		141,16.3 140.5,16.4 139.2,19.6 139.5,20.6 141.1,21.3 141.2,21.6 139,22.8 138.6,24.7 139.6,26.8 139.6,26.8 139.6,26.8 	"/>
	<polygon class="st0" points="406.7,213 406.1,212.2 406.2,212.2 406.2,212.4 406.7,212.9 406.7,213 407.5,213.1 407.7,212.6 
		406.5,210.9 406.2,210.8 405.3,211.5 404.7,211.4 403.8,209.8 403,209.6 402.8,209.3 403,207.8 389.9,198.6 389.4,198.7 
		389.2,199.4 403.6,217.3 406.3,217.5 406.7,213 406.7,213 406.7,213 	"/>
	<polygon class="st0" points="86.1,42.9 86,44.4 86.4,44.8 88.4,44.2 88.4,44.1 88.5,44.1 88.4,44.2 89.1,44.6 97.7,39.9 97.6,39.9 
		97.7,39.9 97.7,39.9 100.8,39.1 100,34.8 92.5,32.7 85.3,40.8 86.1,42.9 86.1,42.9 86.1,42.9 	"/>
	<polygon class="st0" points="134.8,43 143.6,44.5 145.2,43.5 145.4,40.2 144,39.1 137.3,38.4 135,36.3 135,35.7 135.6,34.8 
		135.6,34.8 135.5,35.2 135.6,35.4 135.6,35.5 136.7,35.6 136.9,35.2 135.6,32.9 134.6,32.9 132.1,30 130.6,30.2 130.3,31.1 
		130.9,33.6 133.1,34.9 131.2,40.6 132.4,41.7 134.2,41.7 134.4,41.9 134.3,42.5 134.8,43 134.8,43 134.8,43 	"/>
	<polygon class="st0" points="112.9,31.8 111.2,31.5 111.1,31.2 111.1,28.2 109.2,26 104.6,29 104.6,29.4 105.3,29.8 105.4,30.1 
		103.9,29.9 102.9,30.8 103.2,31.6 108.1,33.2 105.4,33.6 105,34.2 105.6,35.5 115.2,35.3 118.4,32.3 117.9,30.8 117.5,30.8 
		116.6,31.3 116.5,26.7 115.8,26.7 114.2,27.8 113.2,31 113.3,31.3 112.9,31.8 112.9,31.8 112.9,31.8 	"/>
	<polygon class="st0" points="502.3,291.8 501.5,292 500.9,290.9 500.2,290.8 486.8,303.9 487.1,304.7 490.5,306.2 497.1,299.5 
		498.2,299.3 502.7,292.2 502.3,291.8 502.3,291.8 502.3,291.8 	"/>
	<polygon class="st0" points="511.7,283.7 511.2,283.7 510.8,284 509.3,283.9 508.3,281.1 508.1,280.9 507.6,281.6 507.2,281.3 
		507.2,277 505.5,274.5 505.2,274.5 504.6,286.4 503.7,286.8 503.5,288.1 504.8,290.2 503.4,292.4 503.4,292.7 504,293.4 
		504.4,293.5 509.5,287.3 510.2,287.3 512,284.4 511.7,283.7 511.7,283.7 511.7,283.7 	"/>
	<polygon class="st0" points="122.8,43.7 123,43 120.5,42.2 120.5,42.2 120.4,42.2 120.5,42.2 119.6,41.6 117.3,43.1 117.2,46 
		116.7,46.1 116.2,44.9 115.5,44.5 114.3,45.7 116.4,52.3 117.1,52.3 120.1,50.7 121.7,47.4 120.6,45.6 120.7,45.4 122.8,43.7 
		122.8,43.7 122.8,43.7 	"/>
	<polygon class="st0" points="429.9,207.6 437.1,206.1 437,205.6 436.5,205.5 434.3,206.5 430.6,206 428.2,207.8 427,213.9 
		427.4,214.2 427.8,217.1 429,217.1 429.6,213 429.9,212.8 430.1,213.1 430.9,215.5 431.8,216.1 432.1,216 432.1,216 432.2,215.9 
		432.2,216 432.1,216 432.9,217 433.7,216.7 433.7,215.2 431.6,211.8 431.8,211.2 432.7,210.4 434.3,210.3 434.4,209.3 434.1,209 
		430,210.1 428.9,208.8 429.9,207.6 429.9,207.6 429.9,207.6 	"/>
	<polygon class="st0" points="158.9,120 158.9,119.5 158,119 156.2,119.3 155.9,118.7 155.9,118.5 155.4,117.9 154.9,117.8 
		154.8,118 154.8,118 154.9,118 156.8,115 156.2,114.8 150.8,120.6 150.6,121.7 150,122.4 150.2,122.9 155.6,123.5 155.5,123.7 
		155,124.2 155,124.6 155.3,124.7 157.4,123.4 157.5,123.5 157.4,124.7 158.6,125.3 159.3,125 159.7,123.8 159.5,123 159.4,123 
		159.3,123.1 159.4,123 159.4,123 159.5,122.9 158.7,122.7 158.5,122.4 159.3,121.2 158.5,121 158.9,120 158.9,120 158.9,120 	"/>
	<polygon class="st0" points="99.6,25.5 102.6,26.7 106.6,23.5 106.6,24 105.8,25.3 105.8,26 106.4,26.3 110.9,22.1 110.8,20.3 
		109.8,20.8 108.2,20.3 100.1,23.9 99.4,25.2 99.6,25.5 99.6,25.5 99.6,25.5 	"/>
	<polygon class="st0" points="121.2,29 120.4,33.1 121.7,34.4 123.5,34.7 122.1,36 122,36.7 122.4,37.3 123.8,37.7 128.5,32 
		128.2,31 125.4,30.3 125.3,32.6 124.9,32.8 124.6,32.6 123.9,31.2 123.6,31.1 123.2,31.2 122.5,32.9 122.5,33 122.4,33 122.4,32.9 
		121.9,29 121.2,29 121.2,29 121.2,29 	"/>
	<polygon class="st0" points="126.7,21.8 127.8,22.1 127.8,22.2 127.8,22.1 128.4,22.6 129.3,25.7 130.4,25.8 132.7,21.8 
		132.4,19.3 131.3,18.5 130.9,18.6 130.9,18.6 130.8,18.7 130.9,18.6 131,17.5 129.9,16.4 128.4,16.6 127.8,18.4 128.2,19.1 
		128.2,19 128.2,19 128.3,18.9 128.2,19.1 128.2,19.1 128.1,20.3 127.7,20.6 127,20.2 126.5,20.3 126.2,20.8 126.7,21.8 126.7,21.8 
		126.7,21.8 	"/>
	<polygon class="st0" points="416.5,221.9 420.8,222.3 421.3,221.7 421,221.3 417.5,220.3 418.6,219.7 406.3,217.6 405.8,218.9 
		405.9,219.4 416.5,221.9 	"/>
	<polygon class="st0" points="462.3,287.2 457.6,286.5 457.2,287 457.3,292.9 458.4,294 461.1,292.6 462.9,287.8 462.3,287.2 
		462.3,287.2 462.3,287.2 	"/>
	<polygon class="st0" points="120.5,174.7 120.6,174 108.6,169 104.3,171.4 104.4,171.5 108,170.2 115.8,173.7 115.9,174.2 
		115.7,174.5 116,175.1 120.5,174.7 	"/>
	<polygon class="st0" points="437.3,191.1 435.3,193.9 433.5,193.8 431.8,195.7 431.9,196.1 434.5,195.4 435.1,195.8 435.1,196.6 
		436.4,198.3 437.3,198.5 437.8,198.2 437.8,196.4 438.1,196.2 438.9,196.6 439.3,195.2 437.3,191.1 437.3,191.1 437.3,191.1 	"/>
	<polygon class="st0" points="121.3,178 123.7,178.2 124.6,179.1 129.7,177.6 130.1,177.2 129.9,176.8 123.4,174.6 122.6,175 
		123.2,176.6 120.7,177.1 120.6,177.4 121.3,178 121.3,178 121.3,178 	"/>
	<polygon class="st0" points="132.8,26 133.4,26.5 135.4,26.5 137,25.2 137.6,25.2 137.6,25.2 136.9,25.2 135.4,21.6 134.4,21.5 
		132.8,26 132.8,26 132.8,26 	"/>
	<polygon class="st0" points="126.5,37.9 126.5,39.1 128.3,40.5 129.2,40.1 129.9,38 129.3,36.6 127.9,36.4 126.5,37.9 126.5,37.9 
		126.5,37.9 	"/>
	<polygon class="st0" points="118.7,19.2 119.8,19.9 121.7,19.1 121.8,18.2 120.9,17.3 117.4,17.9 117.3,18.2 118.7,19.2 
		118.7,19.2 118.7,19.2 	"/>
	<polygon class="st0" points="434.3,225.3 439.6,222.4 438.9,222.1 434.4,223.7 433.8,225.3 434.3,225.3 	"/>
	<polygon class="st0" points="135.4,29.5 136.2,29.1 136.2,28.5 133.6,27.2 132.6,27.8 132.7,28.5 135.4,29.5 	"/>
	<polygon class="st0" points="423.2,222.9 427,222.5 427,222.2 425.2,221.5 424.7,222 422.7,221.8 422,222.1 422.1,222.6 
		423.2,222.9 	"/>
	<polygon class="st0" points="432.4,222.5 433.2,221.9 433.1,221.6 428.2,222 428.1,222.3 428.3,222.6 432.4,222.5 	"/>
	<polygon class="st0" points="428.6,224.9 429.1,224.9 429.4,224.4 429.2,224 427.3,223.3 426.9,223.4 426.7,223.8 426.8,224.1 
		428.6,224.9 	"/>
	<polygon class="st0" points="114.7,21 114.6,21 114.7,21 114.6,22.6 115.8,23.7 117.7,23.3 119.5,21.3 119.6,20.9 119.3,20.6 
		115.1,20.6 115,19.5 114.4,19.2 113.9,19.7 113.9,20.6 114.7,21 	"/>
	<polygon class="st0" points="254.4,31.8 255.8,33 256.7,32.7 256.7,32.4 257.5,32.6 257.3,32.8 256.7,32.9 256.4,33.3 256.4,33.9 
		260.9,35 262.7,33.6 263.8,30.7 260.7,29.7 259.9,29.9 259.4,29.7 259.2,29.3 258.7,29.2 258.5,29.4 258.3,30.5 255.9,29.3 
		255.4,29.6 255.2,30.3 254.6,30.2 254.2,31.1 254.4,31.8 254.4,31.8 254.4,31.8 	"/>
	<polygon class="st0" points="340.7,20.9 341.9,25.4 342.3,25.4 346.2,21.7 345.8,20.3 340.6,17.7 340.3,17.8 340.7,20.9 
		340.7,20.9 340.7,20.9 	"/>
	<polygon class="st0" points="326.6,16.6 328.9,17.6 327.3,18.3 328.7,20 329.1,20.1 330.2,18.3 330.1,17.8 330.2,17.7 330.4,17.7 
		330.8,19.7 337.8,22.2 339,21.3 339,20.6 335.7,15.8 332.2,15.9 332.2,16 332.1,16 331.3,16.8 331,16.8 331,16.6 332.2,15.9 
		331.1,13.1 327.8,10.9 327.2,11.2 326.6,16.6 326.6,16.6 326.6,16.6 	"/>
	<polygon class="st0" points="399.7,29.7 403.8,29 404,28.2 400.8,26.7 400,27.3 399.6,29.5 399.7,29.7 399.7,29.7 399.7,29.7 	"/>
	<polygon class="st0" points="389.3,21.5 390.3,23.2 394.5,24.7 399.3,20.2 398.3,17.4 395.7,16.7 395.2,17.2 396,20.3 394,17.3 
		392.9,17 392.6,17.2 392.3,19 392.4,19 392.6,19.2 392.3,19.1 392.3,19 389.5,17.6 388.9,18 388.5,20 389.3,21.5 389.3,21.5 
		389.3,21.5 	"/>
	<polygon class="st0" points="299.4,55 298.6,57 299.1,58.3 298.8,59.4 298.2,60.1 298.3,61.2 299,62 301.3,62.4 302.6,64.1 
		305.2,64.6 305.2,64.7 306.3,64.7 306.6,64.4 306.8,63.9 303.3,59.6 304.1,50.5 312.2,39.8 311.2,38.3 309.7,38.2 301.7,44.7 
		301.1,46.8 299.3,48.3 300,49.4 299.4,55 299.4,55 299.4,55 	"/>
	<polygon class="st0" points="212.2,88.5 218.3,84.9 218.8,83 218,82.4 217.3,80.7 211.1,81.5 210.8,81.1 210.3,81.1 209.7,82.6 
		209.3,82.8 209.4,82.8 209.2,82.9 209.3,82.8 208.2,80.4 207,80.4 207,80.5 207,80.4 207,80.4 207,80.4 205.2,82.2 205.6,82.8 
		207.4,82.8 207.5,83.1 206.8,83.7 205.5,84 205.4,84.3 205.6,84.6 207,85 207.5,85.9 206.6,86.9 212.2,88.5 	"/>
	<path class="st0" d="M390.6,180l0.3,0l8.4,23.5l3.8,2.5l0,0.1l0.1,0l-0.1,0l0.6-1l-8.5-13.5l1.2-5.6l0.3-0.2l6.2,5.3l0.5-0.2l0.8,1
		l0,1.5l0.5,0.2l6.2-5.6l-1.2-6.1l-5.3-5.6l1.4-3.6l2.8-1.2l2.1,2l0.9-0.3l0-0.6l0,0l0-0.1l-0.1,0.1l-0.1-0.3l8.5-3.4l7-13.7
		l-1.4-0.8l0,0l-0.1,0l0.1,0l0.1-0.5l0.7-0.6l0.1-0.7l-0.9-0.9l0,0l-0.1-0.1l0.1,0.1l0.3-0.1l0.2-0.9l-4.9-6.2l2-3.1l2-0.9l0.1-0.6
		l-0.6-0.7l-3.1-0.4l-1.6,1.3l-3.1-2.5l0.4-1.2l0.6,0l3.5-4.5l1.2,0.5l-0.3,4.2l0.3,0.1l3.8-2.4l1.1,0.3l1.1,3.8l2.1,0.3l0.7,0.7
		l1.1,6.1l0.2,0l3.6-1.4l0.4-2.2l-5-8.2l4.4-8.4l2.5,0.6l1.1-0.8l3.1-23.9l6.4,15.6l0.3-0.1l0-0.8l0.6-0.5l1.2,0.5l0.1-0.3l-3.2-6.8
		l0.4-0.6l0.9-0.1l-7.9-13.8l-0.3,0.2l1.1,5.3l-0.1,0.3l-4.7-4.9l-1,0.1l-1.3,1.7l-0.2,0l-0.9-1.7l-0.3,0.2l-0.3,1l-0.3-0.1
		l-0.5-1.4l-0.9-0.4l-1.1,0.2l-0.5-0.7l4.2-13.9l8.7-3l0.2-0.9l0.7-0.5l3.2,0.5l0.1,0.3l-0.2,0.3l0.1,0.7l0.7,0.2l3.8-2.6l-1.5-0.9
		l1.1-7.6l3.2-0.9l0.4,0.1l0.8,2.3l1.1,0.6l0.3-0.1l1.8-4.4l-0.1-0.1l-1.3-2.7l0.1-0.2l1.4-0.4L457.6,84l8.9,15.8l0.2-0.1l1.5-6.5
		l0.2-0.1l-0.5-3.7l1.6-1.3l0.2-0.9l-1.8-4l0.4-0.3l0.4,0.1l0.6-0.8l-2-2l-0.5-2.7l-1-0.5l-0.6,0.6l0,0.1l0.1,0l-0.2,0l0-0.1
		l-1.8-6.4l0.9-1.4l0.4,0l0.8-1.3l0.5,0l0.5,0.8l0.3,0.1l1.1-2.3l1.5-0.7l2.9,1.4l3.9-11.3l2.8-0.4l0.2-0.3l-1.5-3.3l-2-1l0,0
		l-0.2,0l0.1-0.1l0,0l-0.2-0.7l-1.3-0.9l-0.1-0.4l-2.3-1.2l0.1-0.5l0.7-0.2l1.1-1.4l-0.6-3.9l-2-1.6l0.2-1.1l0.6-0.1l0.9,1l1.8-0.7
		l0.1-0.4l1-0.6l1.3,1l4.2-0.2l0.5-0.5l-2.8-4.5l0.9-2.1l-1.2-3l-3.1-0.8l-2.7,1.4l-0.1,0.7l0.9,1l0,0.7l-0.3,0.2l-0.2,0l-1.9-2.4
		l-23.9-1.4l-0.2,0.3l3.4,4.2l0,0.7l-0.6,0.5l-3.5-1.6l-0.4-0.7l0.1-1.6l-1.2-0.4l-0.6,0.6l0,1.5l-0.6,0.7l-9.1,2.5l-2.9-3.6
		l-3.6-0.4l-5.1,2.7l-7-2.5l0.1-1.3l-13,0.8l-0.2,0.3l1.2,0.8l-0.3,0.4l-0.5,0.2l-0.5,1l0.6,0.6l0.8,0l0-0.2l0,0.1l0,0l0.1,0.9
		l1,1.1l0,0.5l-6.5,2.4l-2.8-0.8l-0.1,0.2l1.1,3.9l-0.3,0.3l-3.9-2.1l0-0.2l-1.4-0.3l-0.2-0.5l0,0l-0.4-0.2l0.1-0.1l0.2,0.2l0.1,0
		l0,0l0.6-0.3l0.1-0.3l-0.6-1.1l-0.9-0.3l-0.3-0.4l0-0.7l-4.2-2.3l-4.4,0.5l-0.3,1l0.8,1.3l-0.1,0.5l-2.3,0.9l-3.9-0.9l0-0.4
		l-0.7-0.5l-5.2,1.7l-1.3-0.6l-0.1,0.3l-1.5,0.4l-0.9-0.8L364,39l-0.1,0.6l0.4,0.6l0.7,0.2l0,0l0.1,0l0.1-0.3l0.2-0.2l0,0.1
		l-0.3,0.3l0,0.1l-0.1,0l-2.9,2.7l-0.3-0.3l2.7-11l-2.5-3.5l-0.9,0.2l-4-1.8l-2.4,1.1l-0.2,0.5l0.3,0.5l-0.3,0.8l-0.8-0.4l-0.2-1.9
		l-0.7-0.5l-1.9,0l-1.1-1.8l-2.1-0.4l-0.7,0.5l-0.6,3.4l1.3,3.1l-0.2,0.5l-1.3,0.3l-0.2,0.5l0.1,0.6l-0.7,1.2l-1.5,0.7l-0.1-0.3
		l0.2-0.7l-0.5-0.5l-3.1,1.8l0,1.5l-5.6,5.4l0,1.3l3.5,2.4l0.1,0.3l-0.2,0.3l-0.8-0.6l-5.7,2.2L331,50l2,3.2l4,1.9l1.4,2.9l-0.2,0.5
		l-0.6,0.4l0,0.1l-0.1,0.3l0.1-0.3l0,0l-0.4-2.8l-7.8-2.9l-0.5,0.2l-0.5,1l0.2,0.3l0.6,0.1l0,0l0.1-0.1l0,0.1l0.9,0.5l0.2,0.7
		l-0.5,0.2l-1.2-0.5l-0.7,0.3l-0.1,0.5l3.6,2.1l-0.2,0.2l-3.4-0.7l-2.2-4.6l-0.2,0l-0.1,0.1l3.4,12.4l0.7,0.3l2.8-0.7l0.1,0.1
		l-1.7,1.3l-0.2,1.6l0.6,0.7l0.2,1.3l-4.5,3.9l-0.4-0.1l0.6,0.4l2.5-4.1l-6.8-16.5l-3.8-0.2l-0.4,0.4l1.4,12.5l1.2,0l2,1.7l0,1
		l-0.4,0.2L309,64.1l-0.5,0.2l-0.1,0.2l0.4,1.4l3.7,2.9l-0.1,0.7l-1.1,1.2l-0.3-0.2l-0.2-0.7l-0.8-0.4l-5.7,2.5l-0.4-1.7l-6.6,5.1
		l-0.4,1.3l-1.9,0.1l-0.8-0.8l0-0.9l0.9-0.6l0.1-0.7l-2.4-1.6l-1.7,0.1l1.9,6.3l-0.5,0.4l-2.5,0.2l-1.6,1.7l0.1,3.2l-0.7,0.3
		l-3.3-1.5l-0.5,0.2l-0.3,0.7l0.1,0.7l1.8,1l0.2,0.5l-0.6,0.6l-7-7.8l-0.1,0l0-0.1l0.1,0l0,0l9,1.1l1.7-2.7l-0.1-0.7l-12-5.6l-0.2-1
		l-0.7-0.4l-3.3,0.2l-0.2-0.3l1.9-1.1l-0.1-0.5l-2.7-1.1l-1,0.6l-0.1-0.7l-0.5-0.7l-0.7,0.2l-0.5,1.2l-0.3,0.2l-1.7-1.4l-2.8,1.7
		l0,0l-0.1,0.1l0.1-0.1l0,0l0-0.3l-0.2,0l-0.7,0.8l0.1,0.3l0.1,0l0.1,0.1l-0.1,0l0,0l-2.1,0.7l0,0.9l-1.4,0.7l0,0.2h0l0-0.8
		l-0.4-0.5l-0.2,0.4l0.3,0.9h0l0-0.3l-1.2,0.3h0l0,0.1l0,0l-1.3,0.6l0.2,1l0.3,0.2l-0.1,0.5l-1.6,0.2l-0.3-0.4l0.3-0.4l-0.1,0.3
		h-0.2l-1.3,0.9l0,0.9l-0.2,0.2l2.8-0.3l0.1,0l-8.8,13.7l-0.8-0.1l-0.2,0.1l0,0.3l0.1,0.1l-0.1,0.5l-4.4,3l0.9,5.2l-0.6,1.1l0.1,0.5
		l0.5,0.2l0.2,0.4l-0.5,0.6l0.1,0.7l2.3,1.4l4.7-3.3h0.1l2.6,7.7l0.1,0l2.1,1.3l4.1-3l0-0.4l-0.4-0.3l-0.2,0l-0.1-0.2l1-4.1l1-0.6
		l0.6-1.9l-2.3-3.1l0.3-3.6l4.3-5l0.4-3.1l1.5-0.9l2.6,0.4l0.2,0.8l-4.4,5.8l1.1,6.7l0.7,0.4l0,0l0,0l0.1-0.1l-0.1,0.1l2.4,1
		l6.1-1.5l1.8,0.9l0,0.1l-6.9,1.7l-1.7,2.1l-0.7,0.2l-0.2,1l0.1,0.1l2-0.7l1,0.9l0,1.5l-0.5,0.6l-0.5-0.1l-0.8-0.9l-0.8-0.2
		l-1.5,2.1l0.2,3.4l-3.2,1.6l-0.2-0.3l-0.8-0.4l-5.4,2.6l-0.9-1l0-0.6l-0.4-0.2l-2.6,1.2l-1.9-0.9l-0.4-0.9l0.1-0.3l0.2,0l1.6,0.7
		l1.4-0.4l0.5-2.5l-0.1-0.1l0,0l-1.7,0.7l-0.1,0.7l0.4,0.6l0,0.3l-0.5-0.1l-1.2-1.3l0-0.3l0.8-1.3l-0.5-2.5l-0.4-0.3l-2.4,1.5
		l0.5,6.5l-12.7,9.9l-1.4-0.5l-0.4,0.4l0.3,1.1l-0.4,0.5l-3.5,0.2l-0.3,0.5l4.9,5.1l-0.5,4.2l-11,0.8l0.2,11.7l5,2l8.1-4.5l0.4-3.1
		l3.9-3.9l0.2-1.7l1.2-0.8l3.6,0.5l4-2.1l10,8.7l0.5,1.8l-1.1,1.2l-4,0.5l-0.2,0.3l0.1,0.4l3.5,1.9l0.5-0.2l0.1-1.3l2.6-2.9
		l-0.3-2.3l0.9-0.3l0.9,0.7l0.3-0.1l0-1l-8.9-7.1l-0.4-2l0.3-0.4l0.9-0.4l12.5,14.4l0,0.8l1.5,1.8l1.5,0.3l0.7-1.9l1.4-0.4l0.1-0.3
		l-2.9-4.1l0-0.2l0.3,0l0.3,0.3l1.3-0.3l0.3-0.7l2.1-0.4l1,1l-0.2,2.3l0.3,0.4l0.8,0l0.1,0.1l0,0.4l-1.1,0.6l0.1,0.3l1.2,0.6l0,0.6
		l4.5,2.7l2.9-1l3,1.1l2.5-1.2l1.5,0.2l0.1-0.1l0,0.1l0,0l-2.2,9.1l-21.1-1.9l-1,2.1l0.2,0.7l-0.6,1.1l-14.4-5.9l-0.2-0.8l0.8-0.8
		l0.2-1.4l-0.6-1.2l0.4-1.1l-0.3-0.3l-22.8,2.9l-0.9-0.6l-1.3,0.3l-17.4,24.1l0.3,14.7l2,1.3l0,0l0.1-0.1l0,0.1l0,0l12.4,11.8
		l18-3.1l3.7,3.5l4.2-0.1l1.3,2.4l-1.6,6.2l7.4,15.6l-3.4,11.3l9.5,28l2,1.1l12.4-2.7l8.9-11.4l0.2-1.9l4.1-2.8l-0.4-6.7l9.3-7.7
		l-1.9-15.9l19.2-24.4l0.3-3l-0.7-0.5l-10.3,2.4l-7.2-8.3l1.4-0.5l5.1,5.2l21.3-10.5l2.8-4.9l-1.3-2.7l-3.3-1.3l-1.2-3.5l-4.4,3.6
		l-2.6,0l-1.1-3.3l-0.3,0.1l-0.3,0.7l-0.6,0l-3.9-6.6l0.2-0.7l0.3-0.2l2.2,0.1l7.7,5.9l2.3-0.8l1.3,0.5l0.5,1.2l0.9,0.6l13.5,0.4
		l5.9,4.6l0.5,0l0.1-0.1l0,0.1l-1.6,0.6l0,0.3l1.7,1.8l2.9,0.2l0.9-1.3l0,0l0-0.1l0.1,0.1l0,0.1l0.1,0.1l8.8,22.6l1.5-0.2l3.1-11.5
		l16.4-12.6l6.1,11.4L390.6,180L390.6,180z M278,78.2L278,78.2L278,78.2L278,78.2L278,78.2L278,78.2L278,78.2z"/>
	<polygon class="st0" points="365.3,192 364.8,191.8 364.6,191.9 364.7,197.6 365.8,198.2 367.6,195.5 365.3,192 365.3,192 
		365.3,192 	"/>
	<polygon class="st0" points="315.1,227.2 314.8,227.3 306.9,234 305,248 307,249.4 310.6,247.8 316.5,232.3 315.1,227.2 
		315.1,227.2 315.1,227.2 	"/>
	<polygon class="st0" points="448.4,125.4 449.6,127.7 449.7,127.8 450.7,127 450.7,126.5 449.6,125.7 449.7,125.5 453.7,126 
		455.2,123.7 456.4,123.2 456.7,122.2 455.3,120.6 453.5,120.7 449.9,118 449.3,118.1 450,123.1 449.7,123.3 449.3,123.3 
		448.4,125.4 448.4,125.4 448.4,125.4 	"/>
	<polygon class="st0" points="224.9,109.4 224.6,110.3 222.7,110.9 223.1,114 222.2,115.2 222.4,116.5 224.3,116.8 227.7,115.2 
		228.7,109.8 227.8,108.9 225.9,108.7 224.9,109.4 224.9,109.4 224.9,109.4 	"/>
	<polygon class="st0" points="428.3,163.8 427.9,163.8 426.2,167.3 427.6,170.2 427.9,170.1 429,164.8 428.3,163.8 428.3,163.8 
		428.3,163.8 	"/>
	<polygon class="st0" points="441.1,152 442,148 440.6,146.2 440.7,146 444.1,145 444.2,144.9 444.2,145 444.1,145 442.9,145.7 
		442.3,146.7 442.8,147.8 443.7,147.6 444.1,146.8 445.2,146.7 445.7,145.4 445.1,144.7 445.2,144.2 445.9,143.9 445.8,144.8 
		447.1,146.4 447.8,146.2 449.4,143.9 451.3,143.3 451.6,143.5 452.1,143.3 452.8,142 453,142.6 453.5,142.9 451.7,128 451,127.9 
		449.9,137.2 448.3,138.7 447.8,138.4 447.8,138.1 447.5,137.7 447,138 446.4,141.5 442.7,142.2 438.3,148 438.8,148.8 438.7,148.8 
		438.8,148.9 438.8,148.8 438.9,148.7 439.4,149 439.2,149.6 439.1,149.5 439.1,149.6 439.2,149.6 439.9,151.6 441.1,152 	"/>
	<polygon class="st0" points="247.7,36.4 250.4,40.3 250.4,40.2 250.6,40.2 251.7,38.2 253.1,38.8 253.1,38.9 250.6,40.3 
		250.6,40.3 250.6,41.3 251.7,42.2 251.8,42.2 251.8,42.3 252.3,42.3 252.4,42.5 251.4,42.2 250.4,42.5 250.4,43.5 253,45.4 
		253.3,45.3 253.3,45.4 253.3,45.4 253.3,45.7 254.2,47 254.9,46.9 257.4,37.7 257.7,37.8 258.5,42.5 258.9,43 259.8,42.6 260.3,43 
		260.3,43.2 260.9,43.4 262.2,41.1 259.5,39 259.7,38.4 257.2,35.6 256.5,35.5 252.7,31.7 252.1,32 251.9,33.3 252.1,33.3 
		252.2,34.1 252.1,34.3 251.9,34.2 251.9,33.4 251.8,33.3 251.8,33.3 250.3,33.2 250.3,33.3 250.2,33.3 250.2,33.6 249.9,33.8 
		249.8,33.7 249.9,33.4 250.2,33.3 250.2,33.3 250.3,33.2 250.2,33.1 249.4,32.6 247.3,33.5 247,34 247.7,36.4 247.7,36.4 
		247.7,36.4 	"/>
	<polygon class="st0" points="227.8,104.3 228.5,107 228.3,107.5 228.7,108.1 229.5,108.1 229.6,108 229.5,109.3 230.1,109.9 
		231.2,110 232.2,112.1 230.8,113 230.6,113 230.3,113.2 230.6,115.3 229.5,116.2 229.5,116.5 232,117.7 228.9,120 228.9,120.2 
		229,120.3 238.8,117.8 238.8,117.3 238.5,117.1 238.3,116.6 239,115.5 238.1,113.6 237.1,113.6 237.1,113.6 237.1,113.7 
		237.1,113.6 237.1,113.6 232.6,106.7 233.7,104.1 233.2,103.4 231.4,103.3 231.2,103.1 232,101.6 231.6,101.3 230,101.4 
		228.5,103.5 228.2,103.7 227.8,104.3 227.8,104.3 227.8,104.3 	"/>
	<polygon class="st0" points="412.7,174.5 411.8,173.4 409.2,174.7 409,175.2 410,176.9 412,176.2 412.7,174.5 412.7,174.5 
		412.7,174.5 	"/>
	<polygon class="st0" points="434.3,190.5 433.4,189.5 433.4,189.4 433.3,189.4 433.2,188.7 431.5,188 431.4,188.1 431.5,189.9 
		431.9,190.2 432.6,190.2 433,189.7 432.9,189.8 433,189.8 432.7,192.2 433.3,192.6 433.8,192.4 434.2,191.3 434.3,191.3 
		434.3,191.9 434.3,191.9 434.3,190.5 434.3,190.5 434.3,190.5 	"/>
	<polygon class="st0" points="430.6,176.5 429.3,176.4 428.1,177 427.3,180.9 428.8,183.6 428.8,183.6 428.9,183.6 428.7,183.6 
		428.7,183.6 429.9,185.2 429.9,185.2 429.8,185.1 430.6,184.7 431.1,184.8 431.4,185.1 432.6,185.1 432.5,185.1 432.6,185.1 
		432.6,185.1 433.8,186.4 433.9,187.7 434.4,187.9 434.7,187.8 434.9,186.5 432.6,183.7 430.9,183.7 430.7,182.5 430.3,182.2 
		431,176.8 430.6,176.5 430.6,176.5 430.6,176.5 	"/>
	<polygon class="st0" points="435.6,186.7 435.3,187.3 435.7,188.2 435.7,188.2 435.7,188.2 435.9,188.4 435.9,188.6 435.7,188.5 
		435.7,188.2 435.7,188.2 435.6,188.3 435.5,189.7 436.1,190.7 436.5,190.8 436.8,190.4 436.6,189.9 437.3,188.3 436.9,187.2 
		435.6,186.7 435.6,186.7 435.6,186.7 	"/>
</g>
</svg>
